{
	"asset":{
		"generator":"Khronos glTF Blender I/O v4.2.70",
		"version":"2.0"
	},
	"scene":0,
	"scenes":[
		{
			"name":"Scene",
			"nodes":[
				0
			]
		}
	],
	"nodes":[
		{
			"mesh":0,
			"name":"Plane-col",
			"scale":[
				100,
				100,
				100
			]
		}
	],
	"materials":[
		{
			"doubleSided":true,
			"name":"GrassRocky",
			"normalTexture":{
				"index":0
			},
			"pbrMetallicRoughness":{
				"baseColorTexture":{
					"index":1
				},
				"metallicFactor":0,
				"metallicRoughnessTexture":{
					"index":2
				}
			}
		}
	],
	"meshes":[
		{
			"name":"Plane",
			"primitives":[
				{
					"attributes":{
						"POSITION":0,
						"NORMAL":1,
						"TEXCOORD_0":2
					},
					"indices":3,
					"material":0
				}
			]
		}
	],
	"textures":[
		{
			"sampler":0,
			"source":0
		},
		{
			"sampler":0,
			"source":1
		},
		{
			"sampler":0,
			"source":2
		}
	],
	"images":[
		{
			"mimeType":"image/jpeg",
			"name":"rocky_terrain_02_nor_gl_4k.jpg.001",
			"uri":"../materials/aerial_rocky/rocky_terrain_02_nor_gl_4k.jpg"
		},
		{
			"mimeType":"image/jpeg",
			"name":"rocky_terrain_02_diff_4k.jpg.001",
			"uri":"../materials/aerial_rocky/rocky_terrain_02_diff_4k.jpg"
		},
		{
			"mimeType":"image/jpeg",
			"name":"rocky_terrain_02_rough_4k.jpg.001",
			"uri":"../materials/aerial_rocky/rocky_terrain_02_rough_4k.jpg"
		}
	],
	"accessors":[
		{
			"bufferView":0,
			"componentType":5126,
			"count":10406,
			"max":[
				1.426079273223877,
				0.10348844528198242,
				1.4159671068191528
			],
			"min":[
				-1.0424975156784058,
				-0.35440120100975037,
				-1.023244857788086
			],
			"type":"VEC3"
		},
		{
			"bufferView":1,
			"componentType":5126,
			"count":10406,
			"type":"VEC3"
		},
		{
			"bufferView":2,
			"componentType":5126,
			"count":10406,
			"type":"VEC2"
		},
		{
			"bufferView":3,
			"componentType":5123,
			"count":61212,
			"type":"SCALAR"
		}
	],
	"bufferViews":[
		{
			"buffer":0,
			"byteLength":124872,
			"byteOffset":0,
			"target":34962
		},
		{
			"buffer":0,
			"byteLength":124872,
			"byteOffset":124872,
			"target":34962
		},
		{
			"buffer":0,
			"byteLength":83248,
			"byteOffset":249744,
			"target":34962
		},
		{
			"buffer":0,
			"byteLength":122424,
			"byteOffset":332992,
			"target":34963
		}
	],
	"samplers":[
		{
			"magFilter":9729,
			"minFilter":9987
		}
	],
	"buffers":[
		{
			"byteLength":455416,
			"uri":"world.bin"
		}
	]
}
